<svg width="72" height="67" viewBox="0 0 72 67" fill="none" xmlns="http://www.w3.org/2000/svg">
<g opacity="0.98">
<path d="M0 5C0 2.23857 2.23858 0 5 0H67C69.7614 0 72 2.23858 72 5V61.5217C72 64.2832 69.7614 66.5217 67 66.5217H5C2.23857 66.5217 0 64.2832 0 61.5217V5Z" fill="#C62F2A"/>
<path d="M22.8028 47.889L22.8066 44.8297C24.7239 44.8297 25.4266 44.7346 25.7615 47.086H25.9638V44.4668L20.7435 44.4716V44.8307H21.6466V51.5633H20.6508V51.9192H26.0311V49.1658H25.7615C25.492 51.2461 24.9666 51.5615 23.4868 51.5615H22.8V48.2904H23.1951C23.8584 48.3045 24.2347 48.6905 24.3711 49.8342H24.6157L24.611 46.4502C24.6063 46.4549 24.3711 46.4502 24.3711 46.4502C24.3711 46.4643 24.324 47.9045 23.1622 47.881H22.7953L22.8028 47.889ZM20.6687 48.0236H17.7241V48.3591H18.733V50.7783C18.5628 51.3948 17.6568 51.6504 17.3878 51.6504C15.5048 51.6504 15.6403 48.8962 15.6403 48.1605C15.6403 47.4866 15.573 44.6683 17.3873 44.6683C18.6658 44.6683 19.3375 45.9414 19.6075 47.0841H19.8112C19.8112 46.6135 19.8173 44.3722 19.8131 44.377C19.8131 44.3605 18.9334 45.0104 18.9334 45.0001C18.9522 44.9954 18.5289 44.3977 17.3859 44.3977C15.1657 44.3977 14.3519 46.6144 14.3566 48.1605C14.3665 49.5744 15.0203 51.9855 17.3863 51.9855C18.1295 51.9855 18.6531 51.6076 18.9339 51.176C18.9358 51.168 19.8714 51.9135 19.8747 51.9182V48.3591H20.6677L20.6687 48.0236ZM55.0829 49.1682C54.8158 51.2485 54.288 51.5591 52.8091 51.5591H52.7197V44.826H53.6605V44.4636H50.5663V44.826H51.5071V51.5572H50.7615L48.0131 44.2649H47.6076C47.617 44.2588 45.3253 50.8832 45.3201 50.903C45.3258 50.8818 45.1479 51.4702 44.7698 51.5431C44.4231 51.56 44.4485 51.3784 44.4485 51.3148V50.0394C44.4485 49.7052 44.4226 48.9428 44.0745 48.5931C43.6841 48.201 43.019 48.1723 43.0331 48.1582C43.0331 48.1582 44.7241 47.8085 44.7241 46.2003C44.7241 45.0745 43.9409 44.5153 42.6328 44.4654H38.9186V44.8278H39.8688V51.56H38.9186V51.9177H41.9653V51.56H41.0152V48.3238H42.2814C44.4809 48.5041 41.9051 51.9206 44.7858 51.9187H46.5967V51.5586C46.4932 51.5586 45.83 51.5789 45.7877 51.1153C45.7594 50.7811 46.2251 49.5762 46.2251 49.5762H48.6946C48.6899 49.5715 49.4614 51.5624 49.4661 51.5624H48.6053V51.9201H55.3412V49.1715H55.0731L55.0829 49.1682ZM42.2283 47.9464H41.0194V44.826H42.5655C43.4687 44.9624 43.5063 46.012 43.5063 46.3462C43.5063 47.151 43.1676 47.9464 42.2222 47.9464H42.2283ZM46.3898 49.2313L47.4622 46.0111L48.6053 49.2313H46.3898ZM35.2515 44.8269C37.1707 44.8269 37.8777 44.7346 38.2103 47.086H38.4144V44.4692H30.8064V44.8269H31.0054C31.2744 44.8269 31.9123 44.8467 31.948 45.4058V49.701L28.3872 44.4687H26.4492V44.8264H26.7705C27.1515 44.8264 27.6896 44.8405 27.7132 45.4053V50.9072C27.7132 51.4391 26.9102 51.6462 26.5739 51.6462H26.5701V51.9144H29.1949V51.6462C28.8576 51.6462 28.049 51.4391 28.049 50.9072L28.0584 46.0595C29.4682 48.0739 32.1287 51.9144 32.1531 51.9097H32.2848V45.4058C32.3225 44.8467 32.9594 44.8269 33.2279 44.8269H34.1019V51.5643H33.1047V51.9182H38.4859V49.1649H38.2154C37.9473 51.2452 37.4252 51.5643 35.9435 51.5643H35.2567V48.2932H35.6565C36.3245 48.3092 36.7008 48.6957 36.8325 49.8379H37.0771V46.4539C37.0724 46.4634 36.8419 46.4539 36.8419 46.4539C36.8419 46.4728 36.7949 47.9115 35.633 47.8894H35.2661V44.8269H35.2515ZM58.7317 44.8269V44.4645H55.6977V44.8269H56.6512L56.6545 51.5544H55.6996V51.9182H58.7383V51.5544H57.7834V44.8269H58.7317ZM50.7178 39.87L51.6585 39.5142L51.6717 39.5076C53.0076 38.9541 53.1958 38.611 53.1337 37.7219V34.1327C54.1483 36.7119 55.1093 38.5267 57.0769 38.5267C57.345 38.5267 57.6272 38.4924 57.9377 38.4232L58.7044 38.2491L58.1776 37.6669C57.8389 37.2932 57.6743 37.0051 57.4861 36.6719C57.4109 36.5354 57.3309 36.3919 57.2321 36.2342C56.7711 35.4868 55.6752 35.2341 54.7861 35.6318C54.3816 34.8326 53.9771 33.7896 53.4879 32.5019L53.3797 32.2572L53.1257 31.6783V31.6453H53.1116C52.8105 30.9662 52.4859 30.2852 52.1002 29.6451C51.7474 29.0648 51.3947 28.5635 51.0089 28.1136C49.9788 26.904 48.6241 26.1557 46.9683 25.8827C45.8253 25.6897 45.0162 25.6521 43.9908 25.6003C43.7791 25.5909 43.5533 25.5768 43.3182 25.5673C42.8525 25.5391 41.8929 25.4638 40.9662 25.3838C40.3406 25.332 39.7009 25.2802 39.1976 25.2426C39.2305 25.1014 39.2493 24.9508 39.2493 24.8002C39.2493 24.5931 39.2305 24.4095 39.1929 24.2495H45.7736C47.4669 24.2495 48.6946 23.4965 49.4237 22.0233C51.1077 22.0045 52.326 21.242 53.0457 19.7501H53.2809C55.0354 19.7501 56.2914 18.95 57.0063 17.3686L57.3027 16.7144H35.0399C33.576 16.7144 32.329 17.6698 31.8624 19.1476L31.8483 19.1994C31.4696 18.1404 30.7758 17.2462 29.8868 16.7144C28.6497 15.9755 27.2456 15.7307 26.1237 16.0508C25.7545 16.1543 25.3852 16.3237 25.0842 16.5214C24.8302 16.6908 24.468 16.9638 24.2064 17.298C23.9242 17.6604 23.6467 18.1028 23.4444 18.517C23.3174 18.6252 23.2186 18.7288 23.1481 18.8323L22.88 19.3312L22.8658 19.3594C22.546 20.0795 22.1556 20.5831 21.8545 20.9361C21.5535 21.2844 21.5394 21.6186 21.5817 21.8351C21.624 22.0751 21.751 22.2681 21.8874 22.414L21.878 22.4281C21.7887 22.5787 21.7416 22.7575 21.7416 22.9364C21.7416 23.5247 22.2543 23.9671 22.88 23.9671C23.3362 23.9671 23.7125 23.7506 24.1077 23.4918C24.2676 23.3835 24.6909 23.1011 24.8321 23.087C25.0061 23.087 25.166 23.247 25.166 23.4212C25.166 23.9012 24.5451 24.1648 24.0983 24.1977L23.1904 24.2919C22.5366 24.3531 22.2261 24.6966 22.2261 25.0073C22.2261 25.3179 22.3719 25.492 22.4754 25.5956L22.5413 25.6615L22.7718 25.8686L21.8122 27.4123C21.1254 26.7769 20.3258 26.3957 19.6155 26.3722C19.1545 26.3533 18.7594 26.4945 18.4678 26.7722C18.3831 26.8522 18.3078 26.9416 18.242 27.0452H18.2279C17.4705 27.0452 16.859 27.4499 16.558 27.9065C16.2334 28.4054 16.351 29.2667 16.7603 29.9256L14.3477 30.5708V42.1583H58.7896V39.8521H50.7178V39.87ZM56.4499 36.7166C56.5378 36.8602 56.6126 36.9943 56.6869 37.1237C56.7763 37.2838 56.8643 37.4381 56.9678 37.5977C56.2707 37.5553 55.7419 37.1684 55.2527 36.437C55.709 36.2799 56.25 36.3919 56.4522 36.7171L56.4499 36.7166ZM46.8324 26.7915C48.2652 27.0268 49.4393 27.6716 50.3203 28.7071C50.5084 28.9301 50.69 29.1655 50.8683 29.4206C48.4576 29.1043 47.6193 28.7522 46.2708 26.7049C46.4504 26.7284 46.6353 26.7567 46.8319 26.7896L46.8324 26.7915ZM45.7924 23.336H41.2673C41.653 22.9943 41.9776 22.558 42.241 22.0299H48.3889C47.8103 22.9166 46.973 23.336 45.7924 23.336ZM49.3913 21.1107H44.8681C45.2679 20.7596 45.6019 20.3073 45.8667 19.7567H52.0193C51.4431 20.6777 50.5941 21.1107 49.3913 21.1107ZM49.6984 17.6439H55.8261C55.2509 18.4544 54.4338 18.837 53.3035 18.837H48.7807C49.1396 18.517 49.4473 18.1216 49.698 17.6416L49.6984 17.6439ZM24.9346 17.8769C25.0804 17.6886 25.3133 17.4862 25.5964 17.3027C25.8147 17.1521 26.1026 17.025 26.382 16.945C26.8255 16.8179 27.3368 16.8085 27.8651 16.9073L26.239 17.915C26.0367 17.8943 25.8354 17.8844 25.6463 17.8844C25.3688 17.8844 25.1148 17.9065 24.8843 17.9456C24.8993 17.9221 24.9172 17.8985 24.9313 17.8797L24.9346 17.8769ZM23.0357 25.0642C23.0498 24.9997 23.1015 24.9498 23.1561 24.9513L23.9463 24.9762C24.9134 24.9433 25.8965 24.5456 26.0066 23.5393C26.0066 22.8578 25.524 22.1961 24.84 22.1961C24.4779 22.1961 24.0663 22.4488 23.6053 22.7543C23.3089 22.9519 23.0691 23.1101 22.8903 23.1101C22.768 23.1101 22.6739 23.0282 22.6739 22.9618C22.6739 22.951 22.6739 22.9383 22.6833 22.9289L23.1914 22.2511L22.7539 21.9565C22.6645 21.8967 22.5187 21.7809 22.4999 21.6953C22.4952 21.6548 22.5516 21.5823 22.5704 21.5597C22.7539 21.3494 22.9609 21.0919 23.1725 20.7737C23.3042 20.5925 23.3795 20.4932 23.5959 20.4932C23.8123 20.4932 23.9863 20.665 23.9863 20.8754C23.9863 21.0143 24.1368 21.1239 24.3297 21.1239C24.5178 21.1239 24.6025 20.9902 24.7201 20.8754C24.7201 20.8754 25.1717 20.4612 24.9318 20.2659C24.659 20.0428 23.5677 20.4979 23.8734 19.494L23.9487 19.3514C24.0663 19.1961 24.5884 18.8088 25.6703 18.8088C25.8725 18.8088 26.0889 18.8229 26.3147 18.8511L26.4746 18.87L28.7654 17.4533C28.7842 17.5004 28.7936 17.5333 28.7936 17.5333V17.5474C28.9112 18.2393 28.4785 19.0676 27.7776 19.4677L27.4954 19.6277L27.6788 20.6631C27.0908 20.842 26.6816 21.3126 26.6816 21.8821C26.6816 22.0751 26.7239 22.3057 26.7851 22.5975C26.8509 22.9223 26.9215 23.2894 26.9403 23.6659C26.9403 24.739 25.4586 25.4497 24.2027 25.412L24.1698 25.4073C24.118 25.4073 23.3184 25.3414 23.1208 25.1861C23.0832 25.1532 23.0549 25.092 23.0643 25.0449L23.0357 25.0642ZM17.3821 28.4336C17.5656 28.1559 17.9795 27.9159 18.4969 28.0053L18.8873 28.0759L19.0096 27.6947C19.0473 27.5911 19.0896 27.5158 19.1508 27.4594C19.2636 27.3558 19.4283 27.3088 19.6352 27.3135C20.1903 27.3323 20.8818 27.7182 21.4462 28.3254C21.6532 28.5419 21.8366 28.8007 21.9966 29.0596C22.0295 29.1113 22.0671 29.1678 22.0954 29.2196C22.1424 29.2902 22.18 29.3514 22.1894 29.3655C22.213 29.4032 22.4905 29.8173 22.4717 29.8456C22.6645 29.5773 22.8527 29.309 23.0455 29.0408C23.0502 29.036 23.0455 29.0125 23.0267 28.9749C22.9844 28.8854 22.8856 28.7254 22.8245 28.6313L22.7821 28.5607V28.556L22.721 28.4571C22.6598 28.3583 22.5657 28.2124 22.5281 28.1324L23.7276 26.2121C24.0286 26.2733 24.2826 26.2827 24.4049 26.2827H24.4379C26.1313 26.2827 27.8811 25.3038 27.8811 23.6706V23.6283C27.8576 23.1811 27.7776 22.7575 27.707 22.414C27.6647 22.1881 27.6224 21.9763 27.6224 21.8727C27.6224 21.6892 27.8717 21.4915 28.2339 21.4915H28.7795L28.5302 20.0748C29.3016 19.5053 29.772 18.5829 29.7485 17.698C30.5811 18.3334 31.1644 19.4394 31.2726 20.6161C31.3055 20.9549 31.2349 21.435 31.1267 21.9339L31.0703 22.141H31.0797C30.8821 22.9599 30.5952 23.8024 30.44 24.2024L30.2989 24.5696L30.6422 24.7625C31.2584 25.1108 31.6395 25.365 31.6395 26.1792C31.6395 27.1139 30.7975 27.8265 29.9884 27.9771L28.8783 28.1889L29.8144 28.8148C30.1154 29.0125 30.2942 29.342 30.2942 29.6903C30.2942 30.2739 29.8003 30.7492 29.184 30.7492H28.8313L28.7325 31.074C28.3891 32.1955 28.0175 32.7448 26.8133 32.8624C26.8698 32.5236 26.9074 32.1941 26.9074 31.7282C26.9074 31.6199 26.898 31.314 26.8933 31.218L26.8415 30.1713L26.103 30.9196C25.8537 31.1737 25.4116 31.3724 24.9271 31.4674V30.5708L19.663 29.206L17.7937 29.6907C17.375 29.2718 17.2904 28.5819 17.3957 28.4218L17.3821 28.4336ZM15.8679 39.8587L19.6498 38.8731L23.427 39.8592H15.8529L15.8679 39.8587ZM23.9868 39.0515L19.6498 37.922L15.3129 39.0468V31.3004L19.6498 30.1741L23.9868 31.3008V39.0666V39.0515ZM26.0047 37.5407C25.611 38.1055 25.564 38.8821 25.8589 39.8563H24.8843V32.42C25.2248 32.3683 25.5922 32.2741 25.9332 32.1141C25.9125 32.4389 25.8702 32.6977 25.8086 33.0413C25.7954 33.1213 25.7803 33.206 25.7662 33.2954L25.674 33.832H26.2197C27.0334 33.832 27.6402 33.7049 28.1059 33.4649V36.5665C28.1059 36.6465 28.0448 36.7124 27.9695 36.7124H27.8284C27.0146 36.7124 26.342 37.0136 25.9751 37.5454L26.0047 37.5407ZM35.966 37.7431C35.6321 38.1243 35.3075 38.788 35.5192 39.861H29.8939C30.4997 39.7999 30.9381 39.6587 31.2415 39.3433C31.6103 38.9574 31.6427 38.4303 31.6305 38.0584C31.6427 38.0208 31.7044 37.8937 31.98 37.7713L32.4659 37.5454L32.1743 37.0983C31.6935 36.3547 31.9033 34.7403 32.0896 33.8602H32.1329C34.0426 33.8602 35.2779 33.4649 36.5804 33.046C36.9205 32.9378 37.2718 32.8248 37.6411 32.7165H37.6519C37.6604 32.7118 38.0414 32.5895 38.5597 32.4718L40.3957 35.5127L40.4126 35.5372C40.596 35.7988 40.6186 35.9702 40.2856 36.3585L39.3636 37.3506L37.856 37.071H37.8434C37.1613 36.9675 36.4275 37.2357 35.9736 37.7535L35.966 37.7431ZM36.4689 39.8714C36.3024 39.2219 36.371 38.6995 36.6679 38.3606C36.9548 38.0359 37.3875 37.937 37.698 37.9794L39.4478 38.3041L39.4949 38.3135H39.7395L40.9766 36.9816L40.9907 36.9722C41.2024 36.7274 41.8421 35.9791 41.1883 35.0331L39.5372 32.3127C39.81 32.2751 40.0876 32.2515 40.3416 32.2515H40.3557C40.3651 32.2515 41.193 32.2421 42.082 32.7598C42.2043 33.0187 42.3689 33.3576 42.5571 33.7341C42.9052 34.4401 43.3379 35.3155 43.4555 35.6685C43.4931 35.7814 43.6107 36.1203 43.1968 36.5486L40.0311 39.8902H36.4891L36.4689 39.8714ZM47.2595 39.8714H41.2772L43.8408 37.1604C44.3582 36.6286 44.5237 35.9838 44.3064 35.3531C44.1804 34.9907 43.8417 34.2895 43.4908 33.5741C44.5087 34.0494 46.0497 34.473 49.1909 34.7272C49.57 34.7601 49.6693 34.8872 49.7445 35.2355L49.8857 36.591L48.244 36.9581C47.6937 37.071 47.2656 37.4287 47.0587 37.9558C46.8376 38.5347 46.9128 39.2172 47.2656 39.8855L47.2595 39.8714ZM47.9195 38.29C48.0088 38.0594 48.1876 37.9135 48.4275 37.8664L50.8876 37.3205L50.6618 35.0802C50.6006 34.7978 50.4172 33.9224 49.2789 33.8282C44.8902 33.4752 43.8694 32.821 42.8017 32.1339V32.1245L42.797 32.1292L42.7264 32.0868C41.5881 31.3479 40.4545 31.3432 40.3463 31.3479C39.1045 31.3479 37.5287 31.8421 37.4017 31.8844C37.0206 31.9974 36.6679 32.1103 36.3245 32.2186C34.951 32.661 33.7609 33.0469 31.7665 32.9858L31.4043 32.9763L31.3102 33.3293C31.2396 33.6023 30.6799 35.805 31.2208 37.2263C30.741 37.6076 30.741 38.05 30.741 38.1065C30.7598 38.5912 30.6469 38.7136 30.6093 38.7512C30.3788 38.9913 29.6121 39.0242 28.9677 39.0242H28.7231L28.5867 39.2172C28.1868 39.7632 27.3307 39.8949 26.7804 39.7537C26.5405 39.0195 26.5358 38.4547 26.7663 38.1206C27.0438 37.7252 27.6271 37.6829 27.8623 37.6829H28.0034C28.5867 37.6829 29.0617 37.2028 29.0617 36.6192V32.6657C29.2405 32.3927 29.3816 32.0727 29.5086 31.7197C30.4729 31.5644 31.2114 30.7455 31.2114 29.7618C31.2114 29.3853 31.0985 29.0182 30.9009 28.7075C31.79 28.2792 32.552 27.4038 32.552 26.2554C32.552 25.107 31.9734 24.5799 31.4231 24.2316C31.5783 23.7939 31.837 23.0173 32.0064 22.2361L32.7778 19.4733C33.1212 18.3908 34.0243 17.6896 35.078 17.6896H48.6627C48.0888 18.4991 47.2703 18.8803 46.1414 18.8803H37.9097L37.4816 19.8028H44.8286C44.2486 20.7253 43.4019 21.1583 42.1991 21.1583H36.8508L36.4209 22.0807H41.1859C40.612 22.9656 39.7748 23.3845 38.5941 23.3845H35.6824L35.2544 24.3055H38.3072C38.3354 24.3432 38.4106 24.4844 38.4106 24.8562C38.4106 25.4445 37.9167 25.9293 37.3052 25.9293C37.0983 25.9293 36.9195 25.8803 36.6044 25.7532C36.4708 25.6949 36.3353 25.6379 36.1998 25.5819L35.4943 26.2173L35.8894 26.3867C36.5009 26.655 36.8443 26.7915 37.3085 26.7915C37.8716 26.7915 38.3787 26.5609 38.7371 26.1891C39.2606 26.222 40.104 26.2926 40.922 26.3585C41.8981 26.4385 42.8195 26.5166 43.2975 26.5421C43.5374 26.5562 43.7594 26.5656 43.9748 26.575C44.3793 26.5985 44.7509 26.6174 45.1197 26.6409C46.973 29.6531 47.9232 30.0484 51.5122 30.4814C51.771 30.9474 52.0014 31.4368 52.2225 31.931V37.8189C52.2413 38.0919 52.2413 38.1813 52.2037 38.2284C52.0767 38.3931 51.5217 38.6237 51.3288 38.7037L48.3042 39.8474C47.8997 39.3014 47.7586 38.7367 47.9185 38.3244" fill="white"/>
<path d="M22.9999 32.493L20.1024 31.74V32.6907L22.9999 33.4438V32.493ZM16.248 33.4438L19.1466 32.6907V31.74L16.248 32.493V33.4438ZM16.248 35.3546L19.1466 34.6016V33.6508L16.248 34.4025V35.3546ZM22.9999 34.4025L20.1024 33.6541V34.6049L22.9999 35.3579V34.4025ZM22.9999 36.318L20.1024 35.565V36.5157L22.9999 37.2735V36.318ZM16.248 37.2735L19.1466 36.5204V35.5697L16.248 36.3227" fill="white"/>
</g>
</svg>
