<svg width="50" height="50" viewBox="0 0 50 50" fill="none" xmlns="http://www.w3.org/2000/svg">
<rect width="50" height="50" rx="25" fill="#0B273A"/>
<path d="M21.0652 23.4137C20.6891 22.6211 19.8809 22.0703 18.9453 22.0703H15.8203C14.5258 22.0703 13.4766 23.1195 13.4766 24.4141V27.5391L15.0391 28.3203L15.4297 33.7891H19.7266" stroke="white" stroke-linecap="round" stroke-linejoin="round"/>
<path d="M17.3828 19.7266C18.6772 19.7266 19.7266 18.6772 19.7266 17.3828C19.7266 16.0884 18.6772 15.0391 17.3828 15.0391C16.0884 15.0391 15.0391 16.0884 15.0391 17.3828C15.0391 18.6772 16.0884 19.7266 17.3828 19.7266Z" stroke="white" stroke-linecap="round" stroke-linejoin="round"/>
<path d="M29.3262 23.4137C29.7023 22.6211 30.5105 22.0703 31.4461 22.0703H34.5711C35.8656 22.0703 36.9148 23.1195 36.9148 24.4141V27.5391L35.3523 28.3203L34.9617 33.7891H30.6648" stroke="white" stroke-linecap="round" stroke-linejoin="round"/>
<path d="M33.0078 19.7266C34.3022 19.7266 35.3516 18.6772 35.3516 17.3828C35.3516 16.0884 34.3022 15.0391 33.0078 15.0391C31.7134 15.0391 30.6641 16.0884 30.6641 17.3828C30.6641 18.6772 31.7134 19.7266 33.0078 19.7266Z" stroke="white" stroke-linecap="round" stroke-linejoin="round"/>
<path d="M27.5391 36.9141H22.8516L22.4609 30.6641L20.5078 30.2734V25.1953C20.5078 23.4695 21.907 22.0703 23.6328 22.0703H26.7578C28.4836 22.0703 29.8828 23.4695 29.8828 25.1953V30.2734L27.9297 30.6641L27.5391 36.9141Z" stroke="white" stroke-linecap="round" stroke-linejoin="round"/>
<path d="M25.1953 19.7266C26.9212 19.7266 28.3203 18.3275 28.3203 16.6016C28.3203 14.8757 26.9212 13.4766 25.1953 13.4766C23.4694 13.4766 22.0703 14.8757 22.0703 16.6016C22.0703 18.3275 23.4694 19.7266 25.1953 19.7266Z" stroke="white" stroke-linecap="round" stroke-linejoin="round"/>
</svg>
